<?xml version="1.0" encoding="utf-8"?>
<!-- Generator: Adobe Illustrator 22.1.0, SVG Export Plug-In . SVG Version: 6.00 Build 0)  -->
<svg version="1.1" id="svg" xmlns="http://www.w3.org/2000/svg" xmlns:xlink="http://www.w3.org/1999/xlink" x="0px" y="0px"
	 viewBox="0 0 400 315.2" style="enable-background:new 0 0 400 315.2;" xml:space="preserve">
<style type="text/css">
	.st0{fill:none;stroke:#000016;stroke-width:7.3531;stroke-miterlimit:10;}
	.st1{fill:#FFCE00;stroke:#000016;stroke-width:7.3531;stroke-miterlimit:10;}
</style>
<g>
	<g>
		<path class="st0" d="M67.3,16.3v12.8c0,3.9,3.1,7,7,7h82.9c3.9,0,7-3.1,7-7V16.3c0-3.9-3.1-7-7-7H74.4
			C70.5,9.3,67.3,12.4,67.3,16.3z"/>
		<path class="st0" d="M74.4,304.7h82.9c3.9,0,7-3.1,7-7v-12.8c0-3.9-3.1-7-7-7H74.4c-3.9,0-7,3.1-7,7v12.8
			C67.3,301.6,70.5,304.7,74.4,304.7z"/>
		<path class="st0" d="M281,9.3h-82.9c-3.9,0-7,3.1-7,7v12.8c0,3.9,3.1,7,7,7H281c3.9,0,7-3.1,7-7V16.3C288,12.4,284.9,9.3,281,9.3z
			"/>
		<path class="st0" d="M288,297.7v-12.8c0-3.9-3.1-7-7-7h-82.9c-3.9,0-7,3.1-7,7v12.8c0,3.9,3.1,7,7,7H281
			C284.9,304.7,288,301.6,288,297.7z"/>
		<path class="st0" d="M191.1,122.8V43.2c0-3.9-3.1-7-7-7h-12.8c-3.9,0-7,3.1-7,7v79.6v12v136c0,3.9,3.1,7,7,7h12.8c3.9,0,7-3.1,7-7
			v-136V122.8z"/>
	</g>
	<path class="st1" d="M320.9,304.7h-7.2c-5.4,0-9.8-4.4-9.8-9.8v-7.2c0-5.4,4.4-9.8,9.8-9.8h7.2c5.4,0,9.8,4.4,9.8,9.8v7.2
		C330.7,300.3,326.3,304.7,320.9,304.7z"/>
	<path class="st1" d="M280.2,36.2h-79.3c-5.4,0-9.8-4.4-9.8-9.8v-7.2c0-5.4,4.4-9.8,9.8-9.8h79.3c5.4,0,9.8,4.4,9.8,9.8v7.2
		C290,31.8,285.6,36.2,280.2,36.2z"/>
	<path class="st1" d="M156.4,304.7H77.1c-5.4,0-9.8-4.4-9.8-9.8v-7.2c0-5.4,4.4-9.8,9.8-9.8h79.3c5.4,0,9.8,4.4,9.8,9.8v7.2
		C166.2,300.3,161.8,304.7,156.4,304.7z"/>
	<path class="st1" d="M191.5,46v222c0,5.4-4.4,9.8-9.8,9.8h-7.2c-5.4,0-9.8-4.4-9.8-9.8V46c0-5.4,4.4-9.8,9.8-9.8h7.2
		C187.1,36.2,191.5,40.6,191.5,46z"/>
</g>
</svg>
