<?xml version="1.0" encoding="utf-8"?>
<!-- Generator: Adobe Illustrator 22.1.0, SVG Export Plug-In . SVG Version: 6.00 Build 0)  -->
<svg version="1.1" id="svg" xmlns="http://www.w3.org/2000/svg" xmlns:xlink="http://www.w3.org/1999/xlink" x="0px" y="0px"
	 viewBox="0 0 400 315.2" style="enable-background:new 0 0 400 315.2;" xml:space="preserve">
<style type="text/css">
	.st0{fill:none;stroke:#000016;stroke-width:7.3531;stroke-miterlimit:10;}
	.st1{fill:#FFCE00;stroke:#000016;stroke-width:7.3531;stroke-miterlimit:10;}
</style>
<g>
	<g>
		<path class="st0" d="M67.3,17.3v12.8c0,3.9,3.1,7,7,7h82.9c3.9,0,7-3.1,7-7V17.3c0-3.9-3.1-7-7-7H74.4
			C70.5,10.3,67.3,13.4,67.3,17.3z"/>
		<path class="st0" d="M74.4,305.7h82.9c3.9,0,7-3.1,7-7v-12.8c0-3.9-3.1-7-7-7H74.4c-3.9,0-7,3.1-7,7v12.8
			C67.3,302.6,70.5,305.7,74.4,305.7z"/>
		<path class="st0" d="M281,10.3h-82.9c-3.9,0-7,3.1-7,7v12.8c0,3.9,3.1,7,7,7H281c3.9,0,7-3.1,7-7V17.3
			C288,13.4,284.9,10.3,281,10.3z"/>
		<path class="st0" d="M288,298.7v-12.8c0-3.9-3.1-7-7-7h-82.9c-3.9,0-7,3.1-7,7v12.8c0,3.9,3.1,7,7,7H281
			C284.9,305.7,288,302.6,288,298.7z"/>
		<path class="st0" d="M191.1,123.8V44.2c0-3.9-3.1-7-7-7h-12.8c-3.9,0-7,3.1-7,7v79.6v12v136c0,3.9,3.1,7,7,7h12.8c3.9,0,7-3.1,7-7
			v-136V123.8z"/>
	</g>
	<path class="st1" d="M320.9,305.7h-7.2c-5.4,0-9.8-4.4-9.8-9.8v-7.2c0-5.4,4.4-9.8,9.8-9.8h7.2c5.4,0,9.8,4.4,9.8,9.8v7.2
		C330.7,301.3,326.3,305.7,320.9,305.7z"/>
	<path class="st1" d="M280.2,37.2h-79.3c-5.4,0-9.8-4.4-9.8-9.8v-7.2c0-5.4,4.4-9.8,9.8-9.8h79.3c5.4,0,9.8,4.4,9.8,9.8v7.2
		C290,32.8,285.6,37.2,280.2,37.2z"/>
	<path class="st1" d="M156.4,305.7H77.1c-5.4,0-9.8-4.4-9.8-9.8v-7.2c0-5.4,4.4-9.8,9.8-9.8h79.3c5.4,0,9.8,4.4,9.8,9.8v7.2
		C166.2,301.3,161.8,305.7,156.4,305.7z"/>
	<path class="st1" d="M191.5,47v222c0,5.4-4.4,9.8-9.8,9.8h-7.2c-5.4,0-9.8-4.4-9.8-9.8V47c0-5.4,4.4-9.8,9.8-9.8h7.2
		C187.1,37.2,191.5,41.6,191.5,47z"/>
</g>
</svg>
